<svg version="1.1" id="Layer_1" xmlns="http://www.w3.org/2000/svg" xmlns:xlink="http://www.w3.org/1999/xlink" x="0px" y="0px"
	 width="100%" viewBox="0 0 425 416" enable-background="new 0 0 425 416" xml:space="preserve">
<path fill="#FCFCFC" opacity="1.000000" stroke="none" 
	d="
M244.000000,417.000000 
	C162.666672,417.000000 81.833351,417.000000 1.000022,417.000000 
	C1.000015,278.333374 1.000015,139.666718 1.000007,1.000059 
	C142.666626,1.000039 284.333252,1.000039 425.999908,1.000020 
	C425.999939,139.666611 425.999939,278.333221 425.999969,416.999908 
	C365.500000,417.000000 305.000000,417.000000 244.000000,417.000000 
M357.840271,211.959183 
	C358.767517,212.001190 359.694733,212.043198 360.321472,212.740387 
	C352.565125,223.796921 344.150970,234.462280 337.267120,246.037659 
	C332.055359,254.801331 328.686737,264.680817 324.755310,274.170441 
	C323.919495,276.188049 324.199036,278.667755 323.964691,280.934570 
	C324.340454,281.001495 324.716187,281.068451 325.091919,281.135376 
	C340.123779,260.341034 355.155640,239.546692 370.187500,218.752350 
	C370.587097,218.982025 370.986694,219.211700 371.386292,219.441376 
	C370.971619,220.585983 370.648132,221.774017 370.127197,222.868027 
	C367.140015,229.141342 364.072205,235.376343 361.094147,241.653915 
	C352.579285,259.602509 345.065857,277.871155 343.515503,297.991516 
	C342.899963,305.980103 343.651428,313.753845 347.203735,322.295227 
	C354.805145,303.786621 361.907013,286.428101 369.062317,269.091553 
	C375.575500,253.310822 382.146667,237.554016 389.269592,222.033844 
	C389.807617,222.351288 390.345642,222.668747 390.836670,223.742661 
	C390.250519,225.010696 389.452545,226.224854 389.113953,227.555847 
	C387.412384,234.244781 385.664856,240.929199 384.238098,247.679565 
	C379.908875,268.162170 375.393646,288.614777 371.630066,309.203247 
	C370.025055,317.983521 370.356628,327.054596 373.184509,336.724976 
	C374.878265,334.556396 376.119263,333.062469 377.258636,331.494659 
	C399.580627,300.778748 412.752991,266.571564 416.319733,228.734802 
	C420.625977,183.053467 410.864227,140.881973 383.306458,103.805450 
	C375.143463,92.822876 365.134033,82.988327 354.879730,73.852226 
	C345.930267,65.878677 336.898285,66.231537 326.848053,72.779930 
	C322.686615,75.491394 318.647247,78.573669 315.144836,82.079216 
	C304.079590,93.154297 293.375916,104.589661 282.376892,115.732155 
	C272.408691,125.830406 261.997955,135.423767 248.903748,141.478760 
	C241.372467,144.961365 234.781525,143.413071 229.983215,136.703964 
	C227.976273,133.897812 226.305145,130.730423 225.145782,127.489578 
	C224.554123,125.835678 224.903198,123.380058 225.747055,121.768585 
	C227.924896,117.609665 227.734131,113.939133 225.168121,110.050972 
	C224.221741,108.616966 223.147141,105.905441 223.795746,105.071739 
	C225.047913,103.462257 227.554688,101.787292 229.413025,101.921120 
	C232.665421,102.155350 235.820923,103.734634 239.262756,104.828461 
	C241.705307,100.835838 240.034286,97.318359 236.947372,94.335640 
	C240.090408,88.948334 239.309174,86.609711 234.534500,84.006378 
	C230.054062,81.563477 226.023758,78.236244 221.425842,76.089767 
	C218.703522,74.818901 215.099625,74.341827 212.222046,74.984665 
	C210.889999,75.282234 210.346069,79.107613 209.106430,82.169418 
	C209.430939,82.080589 208.654831,82.331337 207.861771,82.504372 
	C195.142151,85.279732 188.996918,92.932472 192.527435,106.016937 
	C192.908737,107.430046 192.580780,109.309273 191.943802,110.674622 
	C189.254471,116.439194 189.658783,119.531197 193.967377,124.209373 
	C194.806213,125.120132 195.864746,126.292030 195.919601,127.388611 
	C196.395813,136.909668 185.032806,146.411041 176.099396,143.259369 
	C169.457977,140.916275 162.471268,137.928436 157.301758,133.349716 
	C143.369354,121.009544 130.380600,107.608398 116.910088,94.740601 
	C109.455498,87.619553 102.064293,80.386070 94.123116,73.835342 
	C87.977829,68.766052 80.432518,66.321991 72.622047,69.460503 
	C67.939072,71.342270 63.378433,74.224289 59.626564,77.613052 
	C37.432976,97.658760 21.079601,121.793388 12.143774,150.366272 
	C-6.781935,210.882462 2.889969,267.692261 35.794453,321.131104 
	C38.977646,326.300842 42.722946,331.124481 46.720303,336.842590 
	C47.399384,334.805359 47.817337,333.920349 47.985970,332.990112 
	C50.374966,319.811462 49.355728,306.593933 46.460266,293.777710 
	C41.196392,270.478271 34.880283,247.416885 29.046276,224.245331 
	C28.535679,222.217316 28.342672,220.109344 28.002151,218.038528 
	C28.597233,217.860123 29.192314,217.681732 29.787395,217.503342 
	C44.031883,252.043152 58.276367,286.582947 72.520851,321.122742 
	C73.256081,321.070801 73.991310,321.018890 74.726532,320.966949 
	C75.410942,313.480164 77.111160,305.922333 76.593246,298.519684 
	C74.898560,274.296967 64.907715,252.692902 53.895050,231.515930 
	C52.326828,228.500305 50.938583,225.391083 49.467041,222.325180 
	C50.107056,221.968231 50.747074,221.611267 51.387093,221.254318 
	C66.016472,241.237442 80.645844,261.220551 95.275223,281.203674 
	C95.804825,280.871552 96.334427,280.539429 96.864029,280.207306 
	C91.508789,251.449234 72.183212,230.202667 56.486454,206.789337 
	C72.992958,220.296295 86.623039,236.752777 102.631256,250.768967 
	C102.582695,220.351868 80.546944,204.899307 60.038067,188.415939 
	C60.333157,187.995743 60.628250,187.575546 60.923340,187.155350 
	C75.131943,193.752762 89.340553,200.350174 104.114647,207.210159 
	C100.007149,192.124985 90.137787,183.919891 76.972198,178.159012 
	C76.980461,177.455276 76.988724,176.751526 77.782066,176.058823 
	C85.450989,178.233383 93.372459,179.774750 100.737183,182.712051 
	C116.944260,189.175949 132.782364,196.560440 148.944550,203.143250 
	C158.287094,206.948425 167.967163,209.924911 177.840485,213.395676 
	C172.663803,230.578278 167.517563,247.731903 162.323608,264.871063 
	C159.478058,274.260864 159.441711,274.249847 168.628784,279.013458 
	C163.009857,285.145142 157.750809,291.332977 151.993073,297.015533 
	C147.890564,301.064484 142.622559,302.372711 136.750122,301.421692 
	C134.186722,301.006561 131.293945,300.895416 128.866669,301.655334 
	C114.923500,306.020599 101.577637,311.830261 91.578354,322.881531 
	C84.135757,331.107086 75.260345,335.591736 64.480545,337.343811 
	C60.118076,338.052856 55.980942,340.148315 51.439766,341.717041 
	C56.046181,348.225067 56.021496,348.162750 61.757931,345.890076 
	C64.531815,344.791077 67.392441,343.887848 70.258667,343.049347 
	C80.633003,340.014374 91.216911,337.573364 98.512733,328.416626 
	C104.903992,320.395172 113.431862,315.247864 122.958305,311.702972 
	C124.360573,311.181183 125.876152,310.963898 127.339310,310.605743 
	C127.594337,311.007965 127.849365,311.410217 128.104401,311.812469 
	C123.451035,317.195129 118.797661,322.577759 113.181046,329.074646 
	C120.631302,327.308990 126.512398,325.915222 132.393509,324.521454 
	C132.575714,325.051941 132.757919,325.582458 132.940125,326.112946 
	C122.624763,332.634064 112.309402,339.155182 101.994034,345.676300 
	C102.224609,346.023041 102.455185,346.369812 102.685760,346.716553 
	C107.658501,346.716553 112.631241,346.716553 117.603981,346.716553 
	C117.729095,347.207397 117.854210,347.698273 117.979324,348.189117 
	C104.467300,354.575684 90.955269,360.962219 76.226425,367.923920 
	C85.112701,374.107056 92.945740,379.674866 100.960052,384.968262 
	C101.849014,385.555420 104.103043,385.028290 105.160713,384.251221 
	C111.465881,379.618805 117.535660,374.667053 123.815758,369.999176 
	C135.569824,361.262543 146.800064,351.583588 159.408325,344.306702 
	C170.070541,338.152954 179.677185,331.056183 188.717377,322.935638 
	C195.283066,317.037903 201.757080,311.037292 208.368530,305.191742 
	C210.388123,303.406097 212.727921,301.982574 215.850433,299.719727 
	C216.556290,306.101959 215.662659,310.750854 212.178955,314.357727 
	C209.083511,317.562653 205.356583,320.159698 201.892822,323.006104 
	C198.916122,325.452332 195.917435,327.871796 192.928467,330.303070 
	C193.103226,330.790375 193.278000,331.277710 193.452774,331.765015 
	C197.796844,332.690216 202.140915,333.615387 206.485001,334.540588 
	C206.595947,335.069366 206.706909,335.598175 206.817856,336.126953 
	C203.583099,337.934296 200.485596,340.069031 197.089935,341.492615 
	C181.908920,347.857025 166.600357,353.720917 154.037308,365.099182 
	C143.308929,374.815796 131.758926,383.624847 120.586403,392.852356 
	C120.004761,393.332764 119.555038,393.972870 118.486572,395.155426 
	C125.736519,398.143097 132.519714,400.803986 139.176910,403.749603 
	C141.756042,404.890778 143.317947,404.244659 145.257034,402.428925 
	C158.145386,390.360535 170.912598,378.142395 184.239212,366.571869 
	C190.061340,361.516937 196.688507,356.941223 203.687714,353.782074 
	C218.885025,346.922607 232.316544,338.044769 244.603668,326.636169 
	C255.521606,316.498840 268.147308,308.185944 280.150970,299.244720 
	C282.682251,297.359253 285.786743,296.243317 288.627106,294.772797 
	C285.939880,304.342255 279.228851,310.202637 271.734802,315.419708 
	C271.979218,315.898407 272.223633,316.377136 272.468048,316.855835 
	C278.931915,314.585022 285.395782,312.314178 291.859619,310.043365 
	C292.179565,310.498993 292.499542,310.954590 292.819489,311.410217 
	C284.537231,319.247681 276.254944,327.085144 267.972687,334.922638 
	C278.319214,336.357269 285.586548,329.488739 295.158051,326.648193 
	C291.766174,334.520599 286.051025,338.436005 279.960724,341.931122 
	C273.881989,345.419617 267.742767,348.802765 261.630066,352.232086 
	C261.777222,352.839478 261.924377,353.446869 262.071564,354.054230 
	C268.080750,354.886688 274.089935,355.719147 280.099121,356.551575 
	C280.214294,357.040314 280.329468,357.529022 280.444641,358.017731 
	C259.375031,377.038574 238.305420,396.059387 216.286469,415.937225 
	C220.703995,415.937225 223.981247,416.177917 227.206421,415.871155 
	C230.596451,415.548676 233.918625,414.572021 237.301315,414.104248 
	C285.789154,407.399384 326.701660,386.002808 360.443695,350.683350 
	C361.425507,349.655640 362.254059,348.481537 363.334473,347.154053 
	C362.021179,346.322601 361.079041,345.685791 360.099884,345.112366 
	C348.039978,338.049683 336.901947,329.618073 329.121246,318.008789 
	C321.093872,306.031525 310.532562,297.400970 298.614075,289.871826 
	C292.438446,285.970581 286.510376,285.510315 280.426392,289.550018 
	C277.101776,291.757507 274.061005,294.401245 270.685089,296.517883 
	C269.542297,297.234406 267.199036,297.649445 266.364716,296.989075 
	C259.824615,291.812378 253.518021,286.340698 246.425125,280.357422 
	C251.868332,278.027130 255.768951,276.357239 259.732330,274.660461 
	C253.555054,253.887314 247.510727,233.561172 241.702942,214.030533 
	C257.247498,207.853195 272.058105,201.990891 286.850159,196.082275 
	C299.955994,190.847229 312.917664,185.217377 326.186920,180.439224 
	C332.995758,177.987366 340.337677,177.015961 347.438690,175.375504 
	C347.662231,175.870087 347.885742,176.364670 348.109283,176.859253 
	C333.194244,182.221970 320.477631,189.841003 316.104523,207.296600 
	C330.645294,200.423691 344.468323,193.890030 358.291351,187.356369 
	C358.560547,187.853149 358.829773,188.349945 359.098969,188.846725 
	C355.664795,191.663376 352.220093,194.467331 348.798370,197.299057 
	C338.604004,205.735626 329.152161,214.858337 322.789062,226.661270 
	C318.741211,234.169617 316.081665,242.047409 317.230164,250.048172 
	C330.389496,237.413589 343.649902,224.681992 357.840271,211.959183 
M183.413101,389.906097 
	C177.014679,396.619354 170.616272,403.332611 162.996933,411.326874 
	C173.943176,412.775757 183.395111,414.117706 192.880173,415.157806 
	C193.964417,415.276672 195.534546,413.944183 196.373199,412.884186 
	C214.124756,390.447723 229.991409,366.487885 251.032791,346.715393 
	C255.534103,342.485535 257.808777,336.332123 258.661804,329.823792 
	C256.357910,330.788300 254.394455,331.965973 252.800629,333.522247 
	C243.291122,342.807648 232.243179,349.743774 220.526932,355.918518 
	C214.881561,358.893707 209.624847,362.975769 204.972351,367.380707 
	C197.604980,374.355988 190.893005,382.023499 183.413101,389.906097 
M64.421043,354.915802 
	C66.610680,357.706268 68.800308,360.496735 71.503593,363.941772 
	C77.789108,357.195374 83.316940,351.262177 88.844772,345.329010 
	C88.311539,344.606659 87.778305,343.884308 87.245079,343.161957 
	C79.825256,346.927521 72.405441,350.693085 64.421043,354.915802 
z"/>
<path fill="#040404" opacity="1.000000" stroke="none" 
	d="
M388.692322,221.786682 
	C382.146667,237.554016 375.575500,253.310822 369.062317,269.091553 
	C361.907013,286.428101 354.805145,303.786621 347.203735,322.295227 
	C343.651428,313.753845 342.899963,305.980103 343.515503,297.991516 
	C345.065857,277.871155 352.579285,259.602509 361.094147,241.653915 
	C364.072205,235.376343 367.140015,229.141342 370.127197,222.868027 
	C370.648132,221.774017 370.971619,220.585983 371.386292,219.441376 
	C370.986694,219.211700 370.587097,218.982025 370.187500,218.752350 
	C355.155640,239.546692 340.123779,260.341034 325.091919,281.135376 
	C324.716187,281.068451 324.340454,281.001495 323.964691,280.934570 
	C324.199036,278.667755 323.919495,276.188049 324.755310,274.170441 
	C328.686737,264.680817 332.055359,254.801331 337.267120,246.037659 
	C344.150970,234.462280 352.565125,223.796921 360.758301,212.262115 
	C363.056030,209.362747 364.916962,206.941666 366.949432,204.406403 
	C367.333069,204.098862 367.461884,203.860519 367.823334,203.219666 
	C368.017273,202.457275 367.895264,202.052414 367.773254,201.647552 
	C367.164795,201.971161 366.556335,202.294769 365.908142,202.694702 
	C365.868439,202.771027 365.583069,202.973633 365.258179,203.125580 
	C362.259003,206.168488 359.584686,209.059448 356.910339,211.950394 
	C343.649902,224.681992 330.389496,237.413589 317.230164,250.048172 
	C316.081665,242.047409 318.741211,234.169617 322.789062,226.661270 
	C329.152161,214.858337 338.604004,205.735626 348.798370,197.299057 
	C352.220093,194.467331 355.664795,191.663376 359.098969,188.846725 
	C358.829773,188.349945 358.560547,187.853149 358.291351,187.356369 
	C344.468323,193.890030 330.645294,200.423691 316.104523,207.296600 
	C320.477631,189.841003 333.194244,182.221970 348.109283,176.859253 
	C347.885742,176.364670 347.662231,175.870087 347.438690,175.375504 
	C340.337677,177.015961 332.995758,177.987366 326.186920,180.439224 
	C312.917664,185.217377 299.955994,190.847229 286.850159,196.082275 
	C272.058105,201.990891 257.247498,207.853195 241.702942,214.030533 
	C247.510727,233.561172 253.555054,253.887314 259.732330,274.660461 
	C255.768951,276.357239 251.868332,278.027130 246.425125,280.357422 
	C253.518021,286.340698 259.824615,291.812378 266.364716,296.989075 
	C267.199036,297.649445 269.542297,297.234406 270.685089,296.517883 
	C274.061005,294.401245 277.101776,291.757507 280.426392,289.550018 
	C286.510376,285.510315 292.438446,285.970581 298.614075,289.871826 
	C310.532562,297.400970 321.093872,306.031525 329.121246,318.008789 
	C336.901947,329.618073 348.039978,338.049683 360.099884,345.112366 
	C361.079041,345.685791 362.021179,346.322601 363.334473,347.154053 
	C362.254059,348.481537 361.425507,349.655640 360.443695,350.683350 
	C326.701660,386.002808 285.789154,407.399384 237.301315,414.104248 
	C233.918625,414.572021 230.596451,415.548676 227.206421,415.871155 
	C223.981247,416.177917 220.703995,415.937225 216.286469,415.937225 
	C238.305420,396.059387 259.375031,377.038574 280.444641,358.017731 
	C280.329468,357.529022 280.214294,357.040314 280.099121,356.551575 
	C274.089935,355.719147 268.080750,354.886688 262.071564,354.054230 
	C261.924377,353.446869 261.777222,352.839478 261.630066,352.232086 
	C267.742767,348.802765 273.881989,345.419617 279.960724,341.931122 
	C286.051025,338.436005 291.766174,334.520599 295.158051,326.648193 
	C285.586548,329.488739 278.319214,336.357269 267.972687,334.922638 
	C276.254944,327.085144 284.537231,319.247681 292.819489,311.410217 
	C292.499542,310.954590 292.179565,310.498993 291.859619,310.043365 
	C285.395782,312.314178 278.931915,314.585022 272.468048,316.855835 
	C272.223633,316.377136 271.979218,315.898407 271.734802,315.419708 
	C279.228851,310.202637 285.939880,304.342255 288.627106,294.772797 
	C285.786743,296.243317 282.682251,297.359253 280.150970,299.244720 
	C268.147308,308.185944 255.521606,316.498840 244.603668,326.636169 
	C232.316544,338.044769 218.885025,346.922607 203.687714,353.782074 
	C196.688507,356.941223 190.061340,361.516937 184.239212,366.571869 
	C170.912598,378.142395 158.145386,390.360535 145.257034,402.428925 
	C143.317947,404.244659 141.756042,404.890778 139.176910,403.749603 
	C132.519714,400.803986 125.736519,398.143097 118.486572,395.155426 
	C119.555038,393.972870 120.004761,393.332764 120.586403,392.852356 
	C131.758926,383.624847 143.308929,374.815796 154.037308,365.099182 
	C166.600357,353.720917 181.908920,347.857025 197.089935,341.492615 
	C200.485596,340.069031 203.583099,337.934296 206.817856,336.126953 
	C206.706909,335.598175 206.595947,335.069366 206.485001,334.540588 
	C202.140915,333.615387 197.796844,332.690216 193.452774,331.765015 
	C193.278000,331.277710 193.103226,330.790375 192.928467,330.303070 
	C195.917435,327.871796 198.916122,325.452332 201.892822,323.006104 
	C205.356583,320.159698 209.083511,317.562653 212.178955,314.357727 
	C215.662659,310.750854 216.556290,306.101959 215.850433,299.719727 
	C212.727921,301.982574 210.388123,303.406097 208.368530,305.191742 
	C201.757080,311.037292 195.283066,317.037903 188.717377,322.935638 
	C179.677185,331.056183 170.070541,338.152954 159.408325,344.306702 
	C146.800064,351.583588 135.569824,361.262543 123.815758,369.999176 
	C117.535660,374.667053 111.465881,379.618805 105.160713,384.251221 
	C104.103043,385.028290 101.849014,385.555420 100.960052,384.968262 
	C92.945740,379.674866 85.112701,374.107056 76.226425,367.923920 
	C90.955269,360.962219 104.467300,354.575684 117.979324,348.189117 
	C117.854210,347.698273 117.729095,347.207397 117.603981,346.716553 
	C112.631241,346.716553 107.658501,346.716553 102.685760,346.716553 
	C102.455185,346.369812 102.224609,346.023041 101.994034,345.676300 
	C112.309402,339.155182 122.624763,332.634064 132.940125,326.112946 
	C132.757919,325.582458 132.575714,325.051941 132.393509,324.521454 
	C126.512398,325.915222 120.631302,327.308990 113.181046,329.074646 
	C118.797661,322.577759 123.451035,317.195129 128.104401,311.812469 
	C127.849365,311.410217 127.594337,311.007965 127.339310,310.605743 
	C125.876152,310.963898 124.360573,311.181183 122.958305,311.702972 
	C113.431862,315.247864 104.903992,320.395172 98.512733,328.416626 
	C91.216911,337.573364 80.633003,340.014374 70.258667,343.049347 
	C67.392441,343.887848 64.531815,344.791077 61.757931,345.890076 
	C56.021496,348.162750 56.046181,348.225067 51.439766,341.717041 
	C55.980942,340.148315 60.118076,338.052856 64.480545,337.343811 
	C75.260345,335.591736 84.135757,331.107086 91.578354,322.881531 
	C101.577637,311.830261 114.923500,306.020599 128.866669,301.655334 
	C131.293945,300.895416 134.186722,301.006561 136.750122,301.421692 
	C142.622559,302.372711 147.890564,301.064484 151.993073,297.015533 
	C157.750809,291.332977 163.009857,285.145142 168.628784,279.013458 
	C159.441711,274.249847 159.478058,274.260864 162.323608,264.871063 
	C167.517563,247.731903 172.663803,230.578278 177.840485,213.395676 
	C167.967163,209.924911 158.287094,206.948425 148.944550,203.143250 
	C132.782364,196.560440 116.944260,189.175949 100.737183,182.712051 
	C93.372459,179.774750 85.450989,178.233383 77.088638,175.829102 
	C72.425087,174.894882 68.454948,174.190369 64.484818,173.485870 
	C64.427025,173.896225 64.369232,174.306564 64.311440,174.716919 
	C68.558174,176.099762 72.804909,177.482620 77.051643,178.865463 
	C90.137787,183.919891 100.007149,192.124985 104.114647,207.210159 
	C89.340553,200.350174 75.131943,193.752762 60.923340,187.155350 
	C60.628250,187.575546 60.333157,187.995743 60.038067,188.415939 
	C80.546944,204.899307 102.582695,220.351868 102.631256,250.768967 
	C86.623039,236.752777 72.992958,220.296295 56.486454,206.789337 
	C72.183212,230.202667 91.508789,251.449234 96.864029,280.207306 
	C96.334427,280.539429 95.804825,280.871552 95.275223,281.203674 
	C80.645844,261.220551 66.016472,241.237442 51.387093,221.254318 
	C50.747074,221.611267 50.107056,221.968231 49.467041,222.325180 
	C50.938583,225.391083 52.326828,228.500305 53.895050,231.515930 
	C64.907715,252.692902 74.898560,274.296967 76.593246,298.519684 
	C77.111160,305.922333 75.410942,313.480164 74.726532,320.966949 
	C73.991310,321.018890 73.256081,321.070801 72.520851,321.122742 
	C58.276367,286.582947 44.031883,252.043152 29.787395,217.503342 
	C29.192314,217.681732 28.597233,217.860123 28.002151,218.038528 
	C28.342672,220.109344 28.535679,222.217316 29.046276,224.245331 
	C34.880283,247.416885 41.196392,270.478271 46.460266,293.777710 
	C49.355728,306.593933 50.374966,319.811462 47.985970,332.990112 
	C47.817337,333.920349 47.399384,334.805359 46.720303,336.842590 
	C42.722946,331.124481 38.977646,326.300842 35.794453,321.131104 
	C2.889969,267.692261 -6.781935,210.882462 12.143774,150.366272 
	C21.079601,121.793388 37.432976,97.658760 59.626564,77.613052 
	C63.378433,74.224289 67.939072,71.342270 72.622047,69.460503 
	C80.432518,66.321991 87.977829,68.766052 94.123116,73.835342 
	C102.064293,80.386070 109.455498,87.619553 116.910088,94.740601 
	C130.380600,107.608398 143.369354,121.009544 157.301758,133.349716 
	C162.471268,137.928436 169.457977,140.916275 176.099396,143.259369 
	C185.032806,146.411041 196.395813,136.909668 195.919601,127.388611 
	C195.864746,126.292030 194.806213,125.120132 193.967377,124.209373 
	C189.658783,119.531197 189.254471,116.439194 191.943802,110.674622 
	C192.580780,109.309273 192.908737,107.430046 192.527435,106.016937 
	C188.996918,92.932472 195.142151,85.279732 207.861771,82.504372 
	C208.654831,82.331337 209.430939,82.080589 209.106430,82.169418 
	C210.346069,79.107613 210.889999,75.282234 212.222046,74.984665 
	C215.099625,74.341827 218.703522,74.818901 221.425842,76.089767 
	C226.023758,78.236244 230.054062,81.563477 234.534500,84.006378 
	C239.309174,86.609711 240.090408,88.948334 236.947372,94.335640 
	C240.034286,97.318359 241.705307,100.835838 239.262756,104.828461 
	C235.820923,103.734634 232.665421,102.155350 229.413025,101.921120 
	C227.554688,101.787292 225.047913,103.462257 223.795746,105.071739 
	C223.147141,105.905441 224.221741,108.616966 225.168121,110.050972 
	C227.734131,113.939133 227.924896,117.609665 225.747055,121.768585 
	C224.903198,123.380058 224.554123,125.835678 225.145782,127.489578 
	C226.305145,130.730423 227.976273,133.897812 229.983215,136.703964 
	C234.781525,143.413071 241.372467,144.961365 248.903748,141.478760 
	C261.997955,135.423767 272.408691,125.830406 282.376892,115.732155 
	C293.375916,104.589661 304.079590,93.154297 315.144836,82.079216 
	C318.647247,78.573669 322.686615,75.491394 326.848053,72.779930 
	C336.898285,66.231537 345.930267,65.878677 354.879730,73.852226 
	C365.134033,82.988327 375.143463,92.822876 383.306458,103.805450 
	C410.864227,140.881973 420.625977,183.053467 416.319733,228.734802 
	C412.752991,266.571564 399.580627,300.778748 377.258636,331.494659 
	C376.119263,333.062469 374.878265,334.556396 373.184509,336.724976 
	C370.356628,327.054596 370.025055,317.983521 371.630066,309.203247 
	C375.393646,288.614777 379.908875,268.162170 384.238098,247.679565 
	C385.664856,240.929199 387.412384,234.244781 389.113953,227.555847 
	C389.452545,226.224854 390.250519,225.010696 391.069458,223.045700 
	C392.009766,219.368515 392.717285,216.388290 393.424835,213.408051 
	C392.897461,213.254044 392.370087,213.100021 391.842743,212.946014 
	C390.792603,215.892899 389.742462,218.839798 388.692322,221.786682 
M369.736603,201.124771 
	C370.565735,199.949020 371.394867,198.773285 372.223999,197.597534 
	C371.902710,197.353577 371.581390,197.109604 371.260101,196.865646 
	C370.469269,197.752884 369.678436,198.640121 368.149536,200.033844 
	C368.474213,200.510620 368.798859,200.987411 369.736603,201.124771 
M187.663010,276.677277 
	C183.240601,279.767273 177.787750,282.051208 174.609375,286.114349 
	C167.905563,294.684326 160.642410,302.091400 150.562195,306.572113 
	C148.073853,307.678192 146.071701,309.878052 143.846054,311.575104 
	C144.150391,312.053009 144.454727,312.530914 144.759064,313.008820 
	C158.197998,311.688354 168.778076,302.243591 182.142517,299.721130 
	C177.157516,305.803741 172.172516,311.886383 167.187515,317.969025 
	C180.564209,317.162354 213.883041,287.471008 214.682724,277.238647 
	C211.291901,277.238647 207.915222,277.238647 203.375107,277.238647 
	C206.350845,270.997559 208.976868,265.489929 211.602890,259.982300 
	C211.148102,259.595428 210.693298,259.208527 210.238510,258.821655 
	C203.472717,264.275574 196.706924,269.729523 189.446518,274.529541 
	C186.797318,264.712097 194.648514,260.515259 200.158539,255.212769 
	C197.118118,251.617599 197.316422,238.701035 200.848999,236.199524 
	C207.044525,231.812317 205.791214,225.627991 206.363251,219.600525 
	C200.102432,218.683868 194.281372,217.831589 187.853577,216.890488 
	C188.815430,219.145508 189.427826,221.005493 190.358551,222.689545 
	C194.312683,229.844116 193.964951,237.731094 192.599731,245.102890 
	C191.893631,248.915634 187.453354,252.088272 184.557220,255.426041 
	C182.598526,257.683380 180.346512,259.683289 178.303116,261.870636 
	C173.655685,266.845551 173.733002,268.957245 178.259048,274.030640 
	C179.612396,270.863525 181.071091,267.449921 182.341385,264.477203 
	C184.398926,268.769196 186.140594,272.402313 187.663010,276.677277 
M228.130585,227.082352 
	C229.585617,223.678421 231.040649,220.274475 232.660461,216.485001 
	C226.077728,217.597946 220.266327,218.580475 213.970062,219.644974 
	C214.496307,224.787704 213.163971,230.569107 217.637604,234.460541 
	C223.404236,239.476700 222.305038,246.184540 222.362671,252.290070 
	C222.381760,254.312546 222.216537,255.777527 223.520859,257.177826 
	C228.798981,262.844299 233.880173,268.556213 230.177307,277.578308 
	C230.924164,277.651825 231.671021,277.725342 232.417877,277.798859 
	C234.112137,273.399811 235.806396,269.000793 237.812866,263.791168 
	C239.240952,267.263336 240.653015,270.696594 241.968094,273.893982 
	C246.406281,269.405304 246.658386,266.861359 242.390335,262.268311 
	C238.433868,258.010529 234.189407,254.017807 230.292297,249.708893 
	C228.926407,248.198654 227.420334,246.122513 227.356812,244.257828 
	C227.171310,238.811768 227.681046,233.342026 228.130585,227.082352 
M211.194855,92.306831 
	C212.837158,92.478012 214.479462,92.649193 216.121765,92.820374 
	C215.826187,91.543602 215.530594,90.266838 215.235016,88.990067 
	C213.829681,89.856255 212.424347,90.722435 211.194855,92.306831 
z"/>
<path fill="#080908" opacity="1.000000" stroke="none" 
	d="
M183.658417,389.652100 
	C190.893005,382.023499 197.604980,374.355988 204.972351,367.380707 
	C209.624847,362.975769 214.881561,358.893707 220.526932,355.918518 
	C232.243179,349.743774 243.291122,342.807648 252.800629,333.522247 
	C254.394455,331.965973 256.357910,330.788300 258.661804,329.823792 
	C257.808777,336.332123 255.534103,342.485535 251.032791,346.715393 
	C229.991409,366.487885 214.124756,390.447723 196.373199,412.884186 
	C195.534546,413.944183 193.964417,415.276672 192.880173,415.157806 
	C183.395111,414.117706 173.943176,412.775757 162.996933,411.326874 
	C170.616272,403.332611 177.014679,396.619354 183.658417,389.652100 
z"/>
<path fill="#161515" opacity="1.000000" stroke="none" 
	d="
M64.703339,354.687195 
	C72.405441,350.693085 79.825256,346.927521 87.245079,343.161957 
	C87.778305,343.884308 88.311539,344.606659 88.844772,345.329010 
	C83.316940,351.262177 77.789108,357.195374 71.503593,363.941772 
	C68.800308,360.496735 66.610680,357.706268 64.703339,354.687195 
z"/>
<path fill="#BCBCBC" opacity="1.000000" stroke="none" 
	d="
M77.011917,178.512238 
	C72.804909,177.482620 68.558174,176.099762 64.311440,174.716919 
	C64.369232,174.306564 64.427025,173.896225 64.484818,173.485870 
	C68.454948,174.190369 72.425087,174.894882 76.696106,175.823578 
	C76.988724,176.751526 76.980461,177.455276 77.011917,178.512238 
z"/>
<path fill="#C2C2C2" opacity="1.000000" stroke="none" 
	d="
M388.980957,221.910263 
	C389.742462,218.839798 390.792603,215.892899 391.842743,212.946014 
	C392.370087,213.100021 392.897461,213.254044 393.424835,213.408051 
	C392.717285,216.388290 392.009766,219.368515 391.092957,222.667465 
	C390.345642,222.668747 389.807617,222.351288 388.980957,221.910263 
z"/>
<path fill="#CBCBCB" opacity="1.000000" stroke="none" 
	d="
M366.777893,204.520584 
	C364.916962,206.941666 363.056030,209.362747 360.908539,211.934509 
	C359.694733,212.043198 358.767517,212.001190 357.375305,211.954803 
	C359.584686,209.059448 362.259003,206.168488 365.510529,203.549744 
	C366.317810,204.054840 366.547852,204.287720 366.777893,204.520584 
z"/>
<path fill="#F4F4F4" opacity="1.000000" stroke="none" 
	d="
M189.941116,275.183441 
	C196.706924,269.729523 203.472717,264.275574 210.238510,258.821655 
	C210.693298,259.208527 211.148102,259.595428 211.602890,259.982300 
	C208.976868,265.489929 206.350845,270.997559 203.375107,277.238647 
	C207.915222,277.238647 211.291901,277.238647 214.682724,277.238647 
	C213.883041,287.471008 180.564209,317.162354 167.187515,317.969025 
	C172.172516,311.886383 177.157516,305.803741 182.142517,299.721130 
	C168.778076,302.243591 158.197998,311.688354 144.759064,313.008820 
	C144.454727,312.530914 144.150391,312.053009 143.846054,311.575104 
	C146.071701,309.878052 148.073853,307.678192 150.562195,306.572113 
	C160.642410,302.091400 167.905563,294.684326 174.609375,286.114349 
	C177.787750,282.051208 183.240601,279.767273 188.066956,276.342133 
	C188.960968,275.732483 189.451050,275.457947 189.941116,275.183441 
z"/>
<path fill="#EDEDED" opacity="1.000000" stroke="none" 
	d="
M189.693817,274.856506 
	C189.451050,275.457947 188.960968,275.732483 188.176575,276.021210 
	C186.140594,272.402313 184.398926,268.769196 182.341385,264.477203 
	C181.071091,267.449921 179.612396,270.863525 178.259048,274.030640 
	C173.733002,268.957245 173.655685,266.845551 178.303116,261.870636 
	C180.346512,259.683289 182.598526,257.683380 184.557220,255.426041 
	C187.453354,252.088272 191.893631,248.915634 192.599731,245.102890 
	C193.964951,237.731094 194.312683,229.844116 190.358551,222.689545 
	C189.427826,221.005493 188.815430,219.145508 187.853577,216.890488 
	C194.281372,217.831589 200.102432,218.683868 206.363251,219.600525 
	C205.791214,225.627991 207.044525,231.812317 200.848999,236.199524 
	C197.316422,238.701035 197.118118,251.617599 200.158539,255.212769 
	C194.648514,260.515259 186.797318,264.712097 189.693817,274.856506 
z"/>
<path fill="#EDEDED" opacity="1.000000" stroke="none" 
	d="
M228.024445,227.481964 
	C227.681046,233.342026 227.171310,238.811768 227.356812,244.257828 
	C227.420334,246.122513 228.926407,248.198654 230.292297,249.708893 
	C234.189407,254.017807 238.433868,258.010529 242.390335,262.268311 
	C246.658386,266.861359 246.406281,269.405304 241.968094,273.893982 
	C240.653015,270.696594 239.240952,267.263336 237.812866,263.791168 
	C235.806396,269.000793 234.112137,273.399811 232.417877,277.798859 
	C231.671021,277.725342 230.924164,277.651825 230.177307,277.578308 
	C233.880173,268.556213 228.798981,262.844299 223.520859,257.177826 
	C222.216537,255.777527 222.381760,254.312546 222.362671,252.290070 
	C222.305038,246.184540 223.404236,239.476700 217.637604,234.460541 
	C213.163971,230.569107 214.496307,224.787704 213.970062,219.644974 
	C220.266327,218.580475 226.077728,217.597946 232.660461,216.485001 
	C231.040649,220.274475 229.585617,223.678421 228.024445,227.481964 
z"/>
<path fill="#CECECE" opacity="1.000000" stroke="none" 
	d="
M211.106934,91.947723 
	C212.424347,90.722435 213.829681,89.856255 215.235016,88.990067 
	C215.530594,90.266838 215.826187,91.543602 216.121765,92.820374 
	C214.479462,92.649193 212.837158,92.478012 211.106934,91.947723 
z"/>
<path fill="#B8B8B8" opacity="1.000000" stroke="none" 
	d="
M368.887604,199.527359 
	C369.678436,198.640121 370.469269,197.752884 371.260101,196.865646 
	C371.581390,197.109604 371.902710,197.353577 372.223999,197.597534 
	C371.394867,198.773285 370.565735,199.949020 369.371368,200.809601 
	C368.966614,200.172073 368.927124,199.849716 368.887604,199.527359 
z"/>
<path fill="#CBCBCB" opacity="1.000000" stroke="none" 
	d="
M368.518555,199.780609 
	C368.927124,199.849716 368.966614,200.172073 369.064819,200.979309 
	C368.798859,200.987411 368.474213,200.510620 368.518555,199.780609 
z"/>
<path fill="#CBCBCB" opacity="1.000000" stroke="none" 
	d="
M365.947876,202.618378 
	C366.556335,202.294769 367.164795,201.971161 367.773254,201.647552 
	C367.895264,202.052414 368.017273,202.457275 367.458984,202.938416 
	C366.501801,202.882584 366.224823,202.750473 365.947876,202.618378 
z"/>
<path fill="#CBCBCB" opacity="1.000000" stroke="none" 
	d="
M367.143066,203.295929 
	C367.461884,203.860519 367.333069,204.098862 366.949432,204.406403 
	C366.547852,204.287720 366.317810,204.054840 365.835388,203.397797 
	C365.583069,202.973633 365.868439,202.771027 365.908142,202.694702 
	C366.224823,202.750473 366.501801,202.882584 367.143066,203.295929 
z"/>
</svg>



