<svg version="1.1" id="Layer_1" xmlns="http://www.w3.org/2000/svg" xmlns:xlink="http://www.w3.org/1999/xlink" x="0px" y="0px"
	 width="100%" viewBox="0 0 304 416" enable-background="new 0 0 304 416" xml:space="preserve">
<path fill="#000000" opacity="1.000000" stroke="none" 
	d="
M8.468657,417.000000 
	C15.265781,404.262848 22.619503,391.582581 31.407530,379.801300 
	C34.012428,376.309143 36.887901,373.074799 40.386028,370.477844 
	C42.159187,369.161469 44.216667,368.145844 46.284298,370.016663 
	C48.215679,371.764221 47.235027,373.613800 46.316917,375.460297 
	C42.831448,382.470276 39.365612,389.490143 35.922241,396.520935 
	C35.212269,397.970551 34.630394,399.482971 33.605968,401.854095 
	C40.789490,401.854095 47.204937,401.880402 53.620049,401.845337 
	C58.285301,401.819855 62.949947,401.679443 67.615181,401.657318 
	C69.916107,401.646423 71.484695,400.989899 71.610184,398.339111 
	C72.295143,383.870789 73.026360,369.404633 73.708084,354.936157 
	C73.737282,354.316467 73.435196,353.681183 73.105804,352.281128 
	C54.162918,359.015076 35.139580,364.686096 15.293273,367.691101 
	C13.667965,363.477478 15.388068,359.723175 16.013639,356.156494 
	C26.153734,298.343597 42.126289,242.273819 67.858635,189.339645 
	C80.464279,163.408493 96.240883,139.533188 118.198570,120.330482 
	C129.430618,110.507690 141.304077,101.630516 156.303467,98.342331 
	C162.381592,97.009888 168.533966,96.878662 174.554581,98.901772 
	C176.991776,99.720749 179.081848,101.081268 180.332016,103.403854 
	C182.145218,106.772446 180.364349,109.895157 176.635574,109.187157 
	C157.638702,105.580109 143.904907,115.626511 130.974777,126.966217 
	C110.050308,145.316956 96.096893,168.797852 83.842918,193.382584 
	C80.833641,199.419998 77.567368,205.377899 75.502274,211.678635 
	C77.587952,213.434998 79.489845,212.854340 81.230865,212.703995 
	C107.727158,210.416016 133.781555,206.161011 158.263565,195.066498 
	C160.445038,194.077927 162.736664,192.936050 164.508530,195.506836 
	C166.287094,198.087311 164.916718,200.335083 163.052231,202.169235 
	C158.451218,206.695435 152.685562,209.430054 146.882828,211.932358 
	C124.967728,221.382797 102.011322,226.590347 78.241859,228.372864 
	C75.591751,228.571594 72.967560,229.096832 70.320274,229.358627 
	C68.422783,229.546280 67.247612,230.548187 66.618675,232.243210 
	C64.603020,237.675552 62.622574,243.120941 60.452835,249.040695 
	C65.406471,250.212646 69.839836,249.102417 74.138863,248.705353 
	C100.420151,246.278183 126.350807,242.179535 150.526886,230.743408 
	C152.714676,229.708481 154.670395,229.443771 156.265381,231.669754 
	C157.853455,233.886063 156.988464,235.776215 155.371948,237.479294 
	C149.449509,243.718872 141.636551,246.841171 133.940582,249.944000 
	C110.071495,259.567474 85.079094,264.026825 59.473766,265.300049 
	C56.462349,265.449738 54.547421,266.075989 53.546371,269.263245 
	C45.859787,293.736389 39.691689,318.593567 34.446793,343.689240 
	C34.252056,344.621002 34.422012,345.628998 34.422012,347.373535 
	C40.009125,345.868652 45.266655,344.670013 50.386963,343.040253 
	C112.167130,323.376465 158.069702,284.008484 191.318665,229.079758 
	C202.946625,209.869858 212.077896,189.589630 216.184082,167.327393 
	C217.279694,161.387375 217.219528,155.349670 216.615265,149.397751 
	C215.981750,143.157776 209.597488,139.233093 202.166687,140.565643 
	C195.296173,141.797714 188.484024,143.453171 181.738876,145.266937 
	C165.193161,149.716049 149.090820,155.784821 132.172226,158.870605 
	C129.632553,159.333832 126.034256,160.671280 124.916931,157.915131 
	C123.512581,154.450943 127.765312,154.085831 129.827744,152.983414 
	C150.897552,141.721115 172.554398,131.938370 196.233505,127.420616 
	C201.197586,126.473511 206.202713,126.436707 211.178207,126.817337 
	C222.787964,127.705513 230.486496,134.978271 232.319656,146.598572 
	C234.952255,163.286270 230.758530,179.084061 225.336990,194.533829 
	C213.006531,229.671860 192.663513,259.930359 167.671143,287.234650 
	C160.758545,294.786682 160.614319,295.357239 166.082047,303.235565 
	C168.704407,302.841980 170.262390,300.770874 172.056549,299.140747 
	C199.998672,273.753387 222.992935,244.244385 243.878448,212.966888 
	C249.426865,204.657776 255.216293,196.509155 260.933899,188.313965 
	C261.786957,187.091248 262.759460,185.916245 263.847076,184.901855 
	C265.190338,183.648987 266.724640,182.360413 268.708801,183.593460 
	C270.725372,184.846649 270.160736,186.676132 269.553741,188.487778 
	C267.062561,195.923019 263.969299,203.110840 260.614075,210.186554 
	C240.492325,252.620468 211.667633,288.182495 175.360764,317.776215 
	C172.354874,320.226318 171.014587,322.772125 171.146240,326.663239 
	C171.405304,334.320251 171.156097,341.993195 171.250534,349.657898 
	C171.274673,351.615601 170.364594,354.428864 173.784363,354.613464 
	C176.958817,354.784821 176.983414,351.957092 177.260391,350.021362 
	C178.368835,342.274811 179.483765,334.534943 181.966034,327.088959 
	C182.801025,324.584290 183.992798,322.165955 185.289444,319.858765 
	C186.214996,318.211884 187.741211,317.017700 189.860962,317.622406 
	C192.086243,318.257233 192.263687,320.158478 192.267166,322.046997 
	C192.283722,331.045990 192.442474,340.049438 192.203217,349.042053 
	C192.092712,353.195496 193.247437,355.129486 197.723526,355.184235 
	C203.216675,355.251465 208.633987,356.362244 213.966461,357.774078 
	C216.734940,358.507111 219.330353,359.560486 221.672699,361.221405 
	C224.143188,362.973145 224.960831,365.387146 224.260056,368.237244 
	C223.497665,371.337921 220.804245,370.959015 218.551834,370.968109 
	C204.053406,371.026794 189.554672,371.008881 175.056030,371.007233 
	C156.057922,371.005096 137.059753,371.013123 118.061745,370.965149 
	C115.638138,370.959045 112.729568,371.460419 111.816574,368.216797 
	C110.891876,364.931580 112.160301,362.269135 115.018898,360.518158 
	C121.323517,356.656433 128.484711,355.806366 135.610901,355.163727 
	C140.410614,354.730957 145.268219,354.785706 150.095673,354.869049 
	C153.356766,354.925323 155.040375,353.970123 154.991318,350.358307 
	C154.860046,340.695404 155.161041,331.023407 154.879410,321.367004 
	C154.720459,315.916656 151.502487,311.476105 149.179306,306.872772 
	C146.514374,307.271362 145.241302,308.955139 143.766586,310.198486 
	C128.921600,322.714233 112.909760,333.465912 95.439575,341.949036 
	C91.821297,343.705994 90.418549,345.884430 90.245041,349.979156 
	C89.307922,372.095276 88.022781,394.196625 86.928818,416.651550 
	C60.979103,417.000000 34.958210,417.000000 8.468657,417.000000 
z"/>
<path fill="#000000" opacity="1.000000" stroke="none" 
	d="
M242.550018,1.000000 
	C249.557281,2.859346 256.473602,2.776512 263.005646,4.976137 
	C269.839539,7.277407 276.574677,9.622448 282.014008,14.574718 
	C288.702026,20.663855 290.841919,29.859566 286.646210,37.777596 
	C284.459442,41.904472 285.266968,44.164211 288.476257,47.043358 
	C295.378265,53.235386 296.013794,62.082920 290.596436,69.495964 
	C289.131348,71.500771 287.405060,73.079788 284.754883,72.389832 
	C282.046722,71.684776 282.644012,69.232101 282.745178,67.378273 
	C283.099274,60.889568 280.230865,56.183746 275.080536,52.600304 
	C269.461212,48.690548 263.734711,45.010891 257.051819,43.092068 
	C254.925903,42.481674 252.793365,42.155342 250.640732,42.441231 
	C247.269730,42.888924 243.970490,43.650372 242.790771,47.515347 
	C241.681366,51.149971 243.112900,54.168900 245.648453,56.533318 
	C249.251053,59.892735 253.647873,62.145428 258.521973,62.689228 
	C264.791870,63.388763 269.253204,66.481262 273.049744,71.293953 
	C280.294708,80.478043 285.285461,90.673447 287.868561,102.073753 
	C288.537872,105.027725 288.742554,107.722031 285.444183,109.334091 
	C282.767426,110.642342 283.541229,112.777405 284.097778,114.938614 
	C287.175690,126.890007 289.192322,138.974792 289.461609,151.372070 
	C289.558228,155.820435 288.046631,158.126694 283.767120,158.068512 
	C279.542023,158.011108 277.337860,160.198624 275.076172,163.454483 
	C267.893250,173.794830 257.434082,178.830383 245.242188,180.639954 
	C243.953110,180.831284 242.588181,180.704681 241.281616,180.540771 
	C239.198898,180.279495 237.214035,179.499527 236.774780,177.230469 
	C236.228897,174.410568 238.767715,174.225388 240.535248,173.493683 
	C247.530319,170.597855 253.959442,166.951141 258.355652,160.521149 
	C257.046051,158.029678 254.838745,158.501511 252.966690,158.393829 
	C250.092041,158.228470 247.368210,157.572601 244.755722,156.430481 
	C242.668915,155.518173 240.860764,154.166336 241.049088,151.640839 
	C241.242096,149.052536 243.270599,148.042511 245.541977,147.692627 
	C252.287155,146.653564 259.026672,145.529434 265.805603,144.771362 
	C272.695404,144.000870 273.166962,143.582458 272.193573,136.795502 
	C271.413361,131.355270 270.525970,125.946762 269.050232,120.635956 
	C268.295471,117.919792 267.082062,117.258919 264.347443,118.310524 
	C259.213470,120.284805 253.937363,121.835815 248.298340,121.423759 
	C245.834183,121.243690 242.878799,121.783409 242.006805,118.674034 
	C241.145538,115.602821 244.108704,114.887871 246.003143,113.769562 
	C252.885925,109.706604 259.770477,105.638405 266.781219,101.804115 
	C269.942383,100.075226 270.713196,98.167236 268.816162,95.035095 
	C267.007721,92.049210 265.527618,88.865364 263.740845,85.865219 
	C261.281921,81.736565 258.062225,79.063622 252.975845,77.871323 
	C243.543503,75.660286 235.124619,71.239021 230.012527,62.389797 
	C224.685333,53.168262 225.076569,43.995228 230.998535,35.144787 
	C218.462448,29.123192 199.162094,39.259804 196.796722,65.589569 
	C202.270065,65.009293 207.673721,64.757599 212.940857,63.774479 
	C217.020126,63.013081 219.745010,63.872974 221.370987,67.752571 
	C221.625031,68.358688 222.066849,68.886192 222.422531,69.449593 
	C228.639145,79.296608 228.637329,79.286064 240.096878,77.282936 
	C242.054840,76.940689 244.285202,76.328217 245.317383,78.772942 
	C246.304977,81.112083 244.546783,82.565063 242.951248,83.747574 
	C236.440964,88.572624 228.898087,91.272331 221.368668,93.968452 
	C219.753769,94.546722 218.400146,93.966949 217.468903,92.562538 
	C216.641739,91.315094 215.939041,89.985817 215.133392,88.723289 
	C208.323486,78.051620 211.821854,80.757477 199.872131,81.486122 
	C196.869553,81.669205 195.500854,83.021523 195.862762,86.354050 
	C196.348572,90.827301 196.826599,95.282021 197.882767,99.659721 
	C198.349976,101.596230 198.206970,103.322792 196.290634,104.446266 
	C194.412949,105.547096 192.789093,104.910309 191.249344,103.675362 
	C189.111984,101.961090 187.440292,99.797890 186.629562,97.257591 
	C179.544998,75.059731 180.445663,53.325310 193.205338,33.486340 
	C203.953918,16.774281 225.455475,12.225671 244.234512,22.451342 
	C252.170532,26.772715 261.076904,27.545828 268.866241,31.691389 
	C270.238312,32.421627 271.472412,32.157780 272.205139,30.652851 
	C273.129883,28.753544 272.695770,26.972742 271.248901,25.626783 
	C268.030792,22.633131 264.022308,20.934835 260.053772,19.205345 
	C249.872726,14.768419 239.044495,12.947638 228.159607,11.402653 
	C226.107529,11.111382 224.051086,11.061199 223.505981,8.547702 
	C222.918350,5.838098 224.787766,4.525672 226.797928,3.625097 
	C228.908722,2.679448 231.185440,2.104142 233.694824,1.183496 
	C236.700012,1.000000 239.400024,1.000000 242.550018,1.000000 
z"/>
</svg>